# xmcd CD database file
#
# Track frame offsets:
#	150
#	5607
#	35934
#	51330
#	75818
#	83225
#	101968
#	122063
#	133323
#	145956
#	155072
#	165782
#	175206
#	203782
#	212882
#
# Disc length: 2963 seconds
#
# Revision: 1
# Processed by: cddbd v1.5.2PL0 Copyright (c) Steve Scherf et al.
# Submitted via: CDex 1.51
#
DISCID=d40b910f
DTITLE=Antonello Salis, Paolo Angeli, Gavino Murgia, Hamid Drake - Giornale di bordo
DYEAR=2010
DGENRE=Jazz
TTITLE0=Salpa l'ancora
TTITLE1=Dear Prudence
TTITLE2=Traiettorie
TTITLE3=Corsicana tarantina
TTITLE4=Specchio di poppa
TTITLE5=Clandestini alla deriva
TTITLE6=Suerte
TTITLE7=Fritto misto
TTITLE8=Ciao Pina
TTITLE9=Abba a bordo
TTITLE10=Carta carbone
TTITLE11=Presi con le pinze
TTITLE12=Quattro con l'Ave Maria
TTITLE13=Digestione sotto costa
TTITLE14=Ormeggi precari
EXTD=YEAR: 2010
EXTT0=
EXTT1=
EXTT2=
EXTT3=
EXTT4=
EXTT5=
EXTT6=
EXTT7=
EXTT8=
EXTT9=
EXTT10=
EXTT11=
EXTT12=
EXTT13=
EXTT14=
PLAYORDER=
